<svg width="16" height="16" viewBox="0 0 16 16" fill="none" xmlns="http://www.w3.org/2000/svg">
<path fill-rule="evenodd" clip-rule="evenodd" d="M8.05404 3.68018C8.05685 3.67749 8.05965 3.67476 8.06242 3.67199C8.06518 3.66922 8.06791 3.66643 8.0706 3.66361L8.81574 2.91847L12.3343 6.43702C13.3559 7.45862 13.3555 9.13386 12.3331 10.1562L11.2345 11.2548L11.2259 11.2632L11.2175 11.2718L10.1194 12.3699C9.09745 13.3919 7.42165 13.3925 6.40025 12.3711L2.88171 8.85251L3.62867 8.10555L3.63488 8.09944L3.64098 8.09323L8.05404 3.68018ZM7.70877 2.61123L5.29672 0.199181C5.10146 0.00391883 4.78487 0.00391883 4.58961 0.199181C4.39435 0.394443 4.39435 0.711026 4.58961 0.906288L7.00166 3.31834L3.28127 7.03873L0.869178 4.62664C0.673916 4.43138 0.357334 4.43138 0.162072 4.62664C-0.0331905 4.8219 -0.0331905 5.13848 0.162072 5.33375L2.57416 7.74584L0.437279 9.88272C0.242017 10.078 0.242017 10.3946 0.437279 10.5898C0.632541 10.7851 0.949123 10.7851 1.14439 10.5898L2.1746 9.55961L5.69315 13.0782C7.10518 14.4902 9.41414 14.4894 10.8265 13.077L11.5796 12.324L15.0979 15.8423C15.2931 16.0376 15.6097 16.0376 15.805 15.8423C16.0003 15.647 16.0003 15.3305 15.805 15.1352L12.2867 11.6169L13.0402 10.8633C14.453 9.45053 14.4536 7.14212 13.0414 5.72991L9.52285 2.21137L10.5527 1.18155C10.7479 0.986286 10.7479 0.669704 10.5527 0.474441C10.3574 0.279179 10.0408 0.279179 9.84556 0.474441L7.70877 2.61123Z" fill="#676879"/>
</svg>
