<svg width="17" height="16" viewBox="0 0 17 16" fill="none" xmlns="http://www.w3.org/2000/svg">
<rect x="0.5" y="0.5" width="15.0711" height="15" rx="3.5" stroke="#676879"/>
<mask id="path-2-inside-1" fill="white">
<path d="M4 10.5C4 10.2239 4.22386 10 4.5 10C4.77614 10 5 10.2239 5 10.5V12.5C5 12.7761 4.77614 13 4.5 13C4.22386 13 4 12.7761 4 12.5V10.5Z"/>
</mask>
<path d="M4 10.5V12.5H6V10.5H4ZM5 12.5V10.5H3V12.5H5ZM4.5 12C4.77614 12 5 12.2239 5 12.5H3C3 13.3284 3.67157 14 4.5 14V12ZM4 12.5C4 12.2239 4.22386 12 4.5 12V14C5.32843 14 6 13.3284 6 12.5H4ZM4.5 11C4.22386 11 4 10.7761 4 10.5H6C6 9.67157 5.32843 9 4.5 9V11ZM4.5 9C3.67157 9 3 9.67157 3 10.5H5C5 10.7761 4.77614 11 4.5 11V9Z" fill="#676879" mask="url(#path-2-inside-1)"/>
<mask id="path-4-inside-2" fill="white">
<path d="M7.5 7.5C7.5 7.22386 7.72386 7 8 7C8.27614 7 8.5 7.22386 8.5 7.5V12.5C8.5 12.7761 8.27614 13 8 13C7.72386 13 7.5 12.7761 7.5 12.5V7.5Z"/>
</mask>
<path d="M7.5 7.5V12.5H9.5V7.5H7.5ZM8.5 12.5V7.5H6.5V12.5H8.5ZM8 12C8.27614 12 8.5 12.2239 8.5 12.5H6.5C6.5 13.3284 7.17157 14 8 14V12ZM7.5 12.5C7.5 12.2239 7.72386 12 8 12V14C8.82843 14 9.5 13.3284 9.5 12.5H7.5ZM8 8C7.72386 8 7.5 7.77614 7.5 7.5H9.5C9.5 6.67157 8.82843 6 8 6V8ZM8 6C7.17157 6 6.5 6.67157 6.5 7.5H8.5C8.5 7.77614 8.27614 8 8 8V6Z" fill="#676879" mask="url(#path-4-inside-2)"/>
<mask id="path-6-inside-3" fill="white">
<path d="M11 4.5C11 4.22386 11.2239 4 11.5 4C11.7761 4 12 4.22386 12 4.5V12.5C12 12.7761 11.7761 13 11.5 13C11.2239 13 11 12.7761 11 12.5V4.5Z"/>
</mask>
<path d="M11 4.5V12.5H13V4.5H11ZM12 12.5V4.5H10V12.5H12ZM11.5 12C11.7761 12 12 12.2239 12 12.5H10C10 13.3284 10.6716 14 11.5 14V12ZM11 12.5C11 12.2239 11.2239 12 11.5 12V14C12.3284 14 13 13.3284 13 12.5H11ZM11.5 5C11.2239 5 11 4.77614 11 4.5H13C13 3.67157 12.3284 3 11.5 3V5ZM11.5 3C10.6716 3 10 3.67157 10 4.5H12C12 4.77614 11.7761 5 11.5 5V3Z" fill="#676879" mask="url(#path-6-inside-3)"/>
</svg>
