<svg width="16" height="16" viewBox="0 0 16 16" fill="none" xmlns="http://www.w3.org/2000/svg">
<path fill-rule="evenodd" clip-rule="evenodd" d="M14.6874 9.10317L15.7218 9.69582C15.9619 9.83336 16.0441 10.138 15.9055 10.3762L14.0232 13.611C13.8846 13.8492 13.5776 13.9308 13.3375 13.7933L12.2902 13.1935C11.7271 13.6502 11.0878 14.0134 10.3922 14.2729V15.48C10.3922 15.755 10.1675 15.978 9.89027 15.978H6.12556C5.84834 15.978 5.6236 15.755 5.6236 15.48V14.2726C4.92715 14.0122 4.28808 13.6494 3.72565 13.1935L2.67831 13.7933C2.43823 13.9308 2.13126 13.8492 1.99266 13.611L0.110306 10.3762C-0.0283057 10.138 0.0539395 9.83336 0.294008 9.69582L1.32842 9.10317C1.19944 8.35864 1.19925 7.65836 1.32832 6.91475L0.296167 6.32229C0.0563472 6.18463 -0.0257166 5.88022 0.112816 5.64215L1.99517 2.40728C2.13372 2.16918 2.4405 2.08751 2.68057 2.22482L3.726 2.82278C4.2903 2.36644 4.92977 2.00338 5.6236 1.74503V0.538338C5.6236 0.263269 5.84834 0.0402832 6.12556 0.0402832H9.89027C10.1675 0.0402832 10.3922 0.263269 10.3922 0.538338V1.74538C11.087 2.00458 11.7262 2.36726 12.2898 2.82281L13.3353 2.22482C13.5753 2.08751 13.8821 2.16918 14.0207 2.40728L15.903 5.64215C16.0415 5.88022 15.9595 6.18463 15.7197 6.32229L14.6875 6.91475C14.8166 7.65836 14.8164 8.35864 14.6874 9.10317ZM13.5715 3.30897L12.6218 3.83693C12.4261 3.9457 12.18 3.91982 12.0132 3.77296C11.3839 3.21873 10.6286 2.80178 9.78726 2.54403C9.57199 2.47809 9.42577 2.28533 9.42577 2.0675V1H6.57423V2.0675C6.57423 2.28556 6.42769 2.47848 6.2121 2.54423C5.37307 2.80012 4.61746 3.21752 3.98677 3.77296C3.82001 3.91982 3.57386 3.9457 3.37822 3.83693L2.42854 3.30897L1.00238 5.69112L1.94087 6.2147C2.13675 6.32398 2.2365 6.54316 2.18732 6.75617C1.98788 7.61996 1.98816 8.37837 2.1874 9.24417C2.23643 9.45724 2.13649 9.67636 1.94051 9.7855L1 10.3092L2.42579 12.6908L3.37795 12.1607C3.57397 12.0516 3.82074 12.0777 3.98755 12.2252C4.61434 12.7795 5.36871 13.1962 6.21338 13.4562C6.42832 13.5223 6.57423 13.7149 6.57423 13.9325V15H9.42577V13.9325C9.42577 13.7147 9.57199 13.5219 9.78726 13.456C10.6296 13.1979 11.3843 12.7807 12.0124 12.2252C12.1793 12.0777 12.426 12.0516 12.622 12.1607L13.5742 12.6908L15 10.3092L14.0595 9.7855C13.8635 9.67636 13.7636 9.45724 13.8126 9.24417C14.0118 8.37837 14.0121 7.61996 13.8127 6.75617C13.7635 6.54316 13.8633 6.32398 14.0591 6.2147L14.9976 5.69112L13.5715 3.30897ZM8.1581 5.26989C9.63772 5.26989 10.8352 6.46951 10.8352 7.94694C10.8352 9.42436 9.63772 10.624 8.1581 10.624C6.67849 10.624 5.48098 9.42436 5.48098 7.94694C5.48098 6.46951 6.67849 5.26989 8.1581 5.26989ZM8.15811 6.266C7.23511 6.266 6.48491 7.01752 6.48491 7.94693C6.48491 8.87635 7.23511 9.62787 8.15811 9.62787C9.08111 9.62787 9.83131 8.87635 9.83131 7.94693C9.83131 7.01752 9.08111 6.266 8.15811 6.266Z" fill="#676879"/>
</svg>
