<svg width="16" height="16" viewBox="0 0 16 16" fill="none" xmlns="http://www.w3.org/2000/svg">
<g clip-path="url(#clip0)">
<path d="M0.356309 3.30487H2.94746C3.02363 3.76558 3.26091 4.18429 3.61703 4.48636C3.97314 4.78843 4.42494 4.95425 4.89192 4.95425C5.35889 4.95425 5.81069 4.78843 6.16681 4.48636C6.52292 4.18429 6.76021 3.76558 6.83638 3.30487H15.6656C15.7119 3.31023 15.7587 3.30575 15.8031 3.29173C15.8474 3.27771 15.8884 3.25446 15.9231 3.22351C15.9579 3.19255 15.9857 3.1546 16.0047 3.11214C16.0238 3.06967 16.0336 3.02366 16.0336 2.97712C16.0336 2.93058 16.0238 2.88457 16.0047 2.84211C15.9857 2.79965 15.9579 2.76169 15.9231 2.73074C15.8884 2.69978 15.8474 2.67653 15.8031 2.66251C15.7587 2.64849 15.7119 2.64402 15.6656 2.64938H6.86717C6.791 2.18866 6.55371 1.76995 6.1976 1.46788C5.84149 1.16581 5.38968 1 4.92271 1C4.45574 1 4.00393 1.16581 3.64782 1.46788C3.29171 1.76995 3.05442 2.18866 2.97825 2.64938H0.356309C0.268803 2.64938 0.184881 2.68414 0.123005 2.74602C0.061129 2.80789 0.0263672 2.89182 0.0263672 2.97932C0.0263672 3.06683 0.061129 3.15075 0.123005 3.21263C0.184881 3.2745 0.268803 3.30926 0.356309 3.30926V3.30487ZM4.89192 1.65515C5.15294 1.65515 5.4081 1.73256 5.62514 1.87758C5.84217 2.02259 6.01133 2.22871 6.11122 2.46987C6.21111 2.71103 6.23725 2.97639 6.18633 3.2324C6.1354 3.48841 6.00971 3.72357 5.82513 3.90814C5.64056 4.09271 5.4054 4.21841 5.14939 4.26933C4.89338 4.32026 4.62802 4.29412 4.38686 4.19423C4.14571 4.09434 3.93959 3.92518 3.79457 3.70815C3.64955 3.49111 3.57215 3.23595 3.57215 2.97492C3.57215 2.80161 3.60628 2.62999 3.67261 2.46987C3.73893 2.30975 3.83615 2.16426 3.9587 2.04171C4.08125 1.91915 4.22674 1.82194 4.38686 1.75562C4.54698 1.68929 4.7186 1.65515 4.89192 1.65515Z" fill="#676879"/>
<path d="M15.6344 7.60348H12.942C12.8659 7.14276 12.6286 6.72406 12.2725 6.42198C11.9163 6.11991 11.4645 5.9541 10.9976 5.9541C10.5306 5.9541 10.0788 6.11991 9.72268 6.42198C9.36657 6.72406 9.12928 7.14276 9.05311 7.60348H0.342638C0.255131 7.60348 0.17121 7.63824 0.109333 7.70012C0.0474572 7.762 0.0126953 7.84592 0.0126953 7.93342C0.0126953 8.02093 0.0474572 8.10485 0.109333 8.16673C0.17121 8.2286 0.255131 8.26337 0.342638 8.26337H9.06631C9.14248 8.72409 9.37977 9.14279 9.73588 9.44486C10.092 9.74694 10.5438 9.91275 11.0108 9.91275C11.4777 9.91275 11.9295 9.74694 12.2857 9.44486C12.6418 9.14279 12.8791 8.72409 12.9552 8.26337H15.6476C15.7351 8.26337 15.819 8.2286 15.8809 8.16673C15.9427 8.10485 15.9775 8.02093 15.9775 7.93342C15.9775 7.84592 15.9427 7.762 15.8809 7.70012C15.819 7.63824 15.7351 7.60348 15.6476 7.60348H15.6344ZM10.9976 9.25319C10.7365 9.25319 10.4814 9.17579 10.2643 9.03077C10.0473 8.88575 9.87816 8.67963 9.77827 8.43848C9.67838 8.19732 9.65224 7.93196 9.70316 7.67595C9.75409 7.41994 9.87978 7.18478 10.0644 7.00021C10.2489 6.81563 10.4841 6.68994 10.7401 6.63901C10.9961 6.58809 11.2615 6.61423 11.5026 6.71412C11.7438 6.81401 11.9499 6.98316 12.0949 7.2002C12.2399 7.41723 12.3173 7.6724 12.3173 7.93342C12.3173 8.28345 12.1783 8.61914 11.9308 8.86664C11.6833 9.11415 11.3476 9.25319 10.9976 9.25319Z" fill="#676879"/>
<path d="M15.6656 12.5566H6.86717C6.791 12.0959 6.55371 11.6772 6.1976 11.3751C5.84149 11.073 5.38968 10.9072 4.92271 10.9072C4.45574 10.9072 4.00393 11.073 3.64782 11.3751C3.29171 11.6772 3.05442 12.0959 2.97825 12.5566H0.356309C0.268803 12.5566 0.184881 12.5914 0.123005 12.6532C0.061129 12.7151 0.0263672 12.799 0.0263672 12.8865C0.0263672 12.9741 0.061129 13.058 0.123005 13.1199C0.184881 13.1817 0.268803 13.2165 0.356309 13.2165H2.94746C3.02363 13.6772 3.26091 14.0959 3.61703 14.398C3.97314 14.7001 4.42494 14.8659 4.89192 14.8659C5.35889 14.8659 5.81069 14.7001 6.16681 14.398C6.52292 14.0959 6.76021 13.6772 6.83638 13.2165H15.6656C15.7531 13.2165 15.8371 13.1817 15.8989 13.1199C15.9608 13.058 15.9956 12.9741 15.9956 12.8865C15.9956 12.799 15.9608 12.7151 15.8989 12.6532C15.8371 12.5914 15.7531 12.5566 15.6656 12.5566ZM4.89192 14.2063C4.63089 14.2063 4.37573 14.1289 4.15869 13.9839C3.94166 13.8389 3.7725 13.6328 3.67261 13.3916C3.57272 13.1504 3.54658 12.8851 3.59751 12.6291C3.64843 12.3731 3.77413 12.1379 3.9587 11.9533C4.14327 11.7688 4.37843 11.6431 4.63444 11.5921C4.89045 11.5412 5.15581 11.5674 5.39697 11.6672C5.63813 11.7671 5.84425 11.9363 5.98926 12.1533C6.13428 12.3704 6.21169 12.6255 6.21169 12.8865C6.21169 13.2366 6.07264 13.5723 5.82513 13.8198C5.57763 14.0673 5.24194 14.2063 4.89192 14.2063Z" fill="#676879"/>
</g>
<defs>
<clipPath id="clip0">
<rect width="16" height="16" fill="white"/>
</clipPath>
</defs>
</svg>
