<svg xmlns="http://www.w3.org/2000/svg" xmlns:xlink="http://www.w3.org/1999/xlink" viewBox="0 0 20 25" version="1.1" x="0px" y="0px"><title>02 - icon/close-simple</title><desc>Created with Sketch.</desc><g stroke="none" stroke-width="1" fill="none" fill-rule="evenodd"><path d="M4.85841309,4.14126671 L10.0229164,9.30008369 L15.1735237,4.15559086 C15.3625992,3.96672756 15.6688983,3.9666372 15.8580852,4.15538892 C16.0232576,4.32018141 16.0441736,4.57483371 15.9206526,4.76238204 L15.8582868,4.83877881 L15.8582868,4.83877881 L10.7069164,9.98308369 L15.8236249,15.0942497 C16.0115842,15.2819994 16.0117541,15.5865717 15.8240044,15.774531 C15.8238107,15.774725 15.8236169,15.7749187 15.8234228,15.7751123 C15.6349361,15.9631654 15.3297705,15.9630749 15.1413954,15.7749099 L10.0259164,10.6640837 L4.82628476,15.8584002 C4.63720927,16.0472635 4.33091019,16.0473538 4.14172331,15.8586021 C3.97655089,15.6938096 3.95563485,15.4391573 4.07915591,15.251609 L4.14152172,15.1752122 L4.14152172,15.1752122 L9.34091636,9.98108369 L4.17618363,4.82192693 C3.98822431,4.63417723 3.98805438,4.32960489 4.17580408,4.14164557 C4.17599778,4.14145166 4.17619164,4.14125791 4.17638567,4.14106433 C4.36487238,3.95301117 4.67003802,3.95310173 4.85841309,4.14126671 Z" fill="#000000"/></g><text x="0" y="35" fill="#000000" font-size="5px" font-weight="bold" font-family="'Helvetica Neue', Helvetica, Arial-Unicode, Arial, Sans-serif">Created by Ilaria Niccolini</text><text x="0" y="40" fill="#000000" font-size="5px" font-weight="bold" font-family="'Helvetica Neue', Helvetica, Arial-Unicode, Arial, Sans-serif">from the Noun Project</text></svg>