<svg xmlns="http://www.w3.org/2000/svg" viewBox="0 0 100 100" x="0px" y="0px"><defs><style>.cls-1{fill:none;}</style></defs><g data-name="Layer 2"><g data-name="Layer 1"><rect class="cls-1" width="100" height="100" /><path d="M9.41,67.18a1.61,1.61,0,0,1-1.49-1A45.38,45.38,0,0,1,81.46,16.29c.76.74,1.5,1.51,2.21,2.3a1.62,1.62,0,0,1-2.41,2.17c-.66-.74-1.35-1.46-2.06-2.15A42.15,42.15,0,0,0,10.91,64.94,1.62,1.62,0,0,1,10,67.06,1.67,1.67,0,0,1,9.41,67.18Z" stroke="black" stroke-width="3"/><path d="M50.14,95a45.17,45.17,0,0,1-31.6-12.81,1.62,1.62,0,0,1,2.26-2.33A42.14,42.14,0,0,0,89.09,33.49a1.62,1.62,0,1,1,3-1.24A45.38,45.38,0,0,1,50.14,95Z" stroke="black" stroke-width="3"/><path d="M20.07,100a1.63,1.63,0,0,1-1.6-1.36L15.64,81.17a3.61,3.61,0,0,1,.64-2.72A3.66,3.66,0,0,1,18.66,77l17.47-2.83a1.62,1.62,0,1,1,.52,3.2L19.18,80.18a.39.39,0,0,0-.27.17.42.42,0,0,0-.07.3l2.83,17.47A1.61,1.61,0,0,1,20.33,100Z" stroke="black" stroke-width="3"/><path d="M81.75,22.72l-.33,0L63.8,21.12a1.62,1.62,0,0,1,.29-3.23l17.62,1.58a.37.37,0,0,0,.3-.09.44.44,0,0,0,.15-.28L83.74,1.48A1.62,1.62,0,0,1,87,1.77L85.39,19.39A3.67,3.67,0,0,1,81.75,22.72Z" stroke="black" stroke-width="3"/></g></g></svg>