<svg width="16" height="16" viewBox="0 0 16 16" fill="none" xmlns="http://www.w3.org/2000/svg">
<g clip-path="url(#clip0)">
<path fill-rule="evenodd" clip-rule="evenodd" d="M8 0.0993789C3.63663 0.0993789 0.0993789 3.63663 0.0993789 8C0.0993789 12.3634 3.63663 15.9006 8 15.9006C12.3634 15.9006 15.9006 12.3634 15.9006 8C15.9006 3.63663 12.3634 0.0993789 8 0.0993789ZM0 8C0 3.58175 3.58175 0 8 0C12.4183 0 16 3.58175 16 8C16 12.4183 12.4183 16 8 16C3.58175 16 0 12.4183 0 8ZM0.745342 8C0.745342 3.99339 3.99339 0.745342 8 0.745342C12.0066 0.745342 15.2547 3.99339 15.2547 8C15.2547 12.0066 12.0066 15.2547 8 15.2547C3.99339 15.2547 0.745342 12.0066 0.745342 8ZM8 0.844721C4.04827 0.844721 0.844721 4.04827 0.844721 8C0.844721 11.9517 4.04827 15.1553 8 15.1553C11.9517 15.1553 15.1553 11.9517 15.1553 8C15.1553 4.04827 11.9517 0.844721 8 0.844721Z" fill="#676879"/>
<path d="M15.2051 8.00012C15.2051 4.02095 11.9793 0.795146 8.00012 0.795146C4.02095 0.795146 0.795146 4.02095 0.795146 8.00012C0.795146 11.9793 4.02095 15.2051 8.00012 15.2051C11.9793 15.2051 15.2051 11.9793 15.2051 8.00012ZM15.9504 8.00012C15.9504 12.3909 12.3909 15.9504 8.00012 15.9504C3.60931 15.9504 0.0498047 12.3909 0.0498047 8.00012C0.0498047 3.60931 3.60931 0.0498047 8.00012 0.0498047C12.3909 0.0498047 15.9504 3.60931 15.9504 8.00012Z" fill="#676879"/>
<path d="M0.5 8.5H5.49307C5.49724 8.5 5.50097 8.50259 5.50243 8.50649L6.95377 12.3767C6.96765 12.4137 7.0211 12.4103 7.03016 12.3718L8.9677 4.13725C8.97694 4.09802 9.03184 4.09553 9.04459 4.13377L10.4977 8.49316C10.4991 8.49725 10.5029 8.5 10.5072 8.5H15.5" stroke="#676879"/>
</g>
<defs>
<clipPath id="clip0">
<rect width="16" height="16" fill="white"/>
</clipPath>
</defs>
</svg>
