<svg width="16" height="16" viewBox="0 0 16 16" fill="none" xmlns="http://www.w3.org/2000/svg">
<path fill-rule="evenodd" clip-rule="evenodd" d="M12 7C12 7 11.6477 6.53026 11 6.04609C10.3112 5.53121 9.28842 5 8 5C6.71158 5 5.68877 5.53121 5 6.04609C4.3523 6.53026 4 7 4 7V6.99951C3.37209 7.83526 3 8.87418 3 10C3 12.7614 5.23858 15 8 15C10.7614 15 13 12.7614 13 10C13 8.87418 12.6279 7.83526 12 6.99951V7ZM14 10C14 8.223 13.2275 6.62643 12 5.52779V4C12 1.79086 10.2091 0 8 0C5.79086 0 4 1.79086 4 4V5.52779C2.7725 6.62643 2 8.223 2 10C2 13.3137 4.68629 16 8 16C11.3137 16 14 13.3137 14 10ZM11 4V4.80269C10.1175 4.29218 9.09286 4 8 4C6.90714 4 5.88252 4.29218 5 4.80269V4C5 2.34315 6.34315 1 8 1C9.65685 1 11 2.34315 11 4ZM9 9C9 9.37014 8.7989 9.69331 8.5 9.86622V11.5C8.5 11.7761 8.27614 12 8 12C7.72386 12 7.5 11.7761 7.5 11.5V9.86622C7.2011 9.69331 7 9.37014 7 9C7 8.44771 7.44772 8 8 8C8.55228 8 9 8.44771 9 9Z" fill="#676879"/>
</svg>
