<svg width="16" height="16" viewBox="0 0 16 16" fill="none" xmlns="http://www.w3.org/2000/svg">
<path fill-rule="evenodd" clip-rule="evenodd" d="M4 8.92443L15 11.4629L15 1.97699L4 4.51546V4.71995V8.71995V8.92443ZM3 3.71994V3.71995H1C0.447715 3.71995 0 4.16767 0 4.71995V8.71995C0 9.27224 0.447715 9.71995 1 9.71995L3 9.71994L5.74327 10.353L6.75247 14.0646C6.98022 14.9022 7.82662 15.4125 8.67368 15.2228C9.56976 15.0222 10.1212 14.1188 9.8901 13.2301L9.35893 11.1874L14.7751 12.4373C15.4018 12.5819 16 12.106 16 11.4629V1.97699C16 1.33391 15.4018 0.858 14.7751 1.0026L3 3.71994ZM8.25972 10.9337L6.84896 10.6082L7.71743 13.8022C7.80489 14.1239 8.1299 14.3198 8.45518 14.247C8.79927 14.1699 9.01102 13.8231 8.92228 13.4818L8.25972 10.9337ZM3 4.71995V8.71995H1V4.71995H3Z" fill="#676879"/>
</svg>
